<?xml version="1.0" encoding="UTF-8"?>
<svg id="_레이어_1" data-name="레이어_1" xmlns="http://www.w3.org/2000/svg" version="1.1" viewBox="0 0 72 72">
  <!-- Generator: Adobe Illustrator 30.2.1, SVG Export Plug-In . SVG Version: 2.1.1 Build 1)  -->
  <defs>
    <style>
      .st0 {
        fill: #fff;
      }
    </style>
  </defs>
  <path class="st0" d="M39.24,41.06c-.53.48-1.03.94-1.48,1.47-1.66,1.98-2.74,4.32-3.33,6.84-.27.17-.78-2.09-.89-2.35-.36.46-.53.93-.75,1.41-.67,1.47-1.16,2.99-1.48,4.57-.01.06-.14.2-.17.14-.55-1.26-.97-2.79-1.02-4.15l-.04-1.2c-.56.92-1.03,4.23-1.07,5.22l-.05,1.12c-.02.4-.03.8-.01,1.2,0,.2.08.38.04.59-.04.22.03.43.04.64l.04.59c.02.3.06.6.13.91-.07.13-.26-.03-.34-.1l-.57-.51c-.52-.46-.49-.4-.99-.93-.99-1.04-1.88-2.12-2.67-3.34-1.73-2.68-2.57-4.9-3.04-8.15-.56,1.27-.81,2.83-.91,4.11-.02.22,0,.42-.05.65s.09.48-.13.68c-1.6-2.47-2.78-5.22-2.91-8.13l-.03-.66c-.02-.53-.05-1.06,0-1.59l.04-.59c.05-.64.21-1.23.31-1.87.01-.07-.17-.03-.23,0-.87.49-1.68,1.06-2.39,1.75-.07.07-.13.18-.27.11.51-3.33,1.95-6.43,4.25-8.9.15-.16.26-.29.42-.5-.76.13-1.78.34-2.49.67-.07.03-.13,0-.17-.04-.06-.06,0-.12.06-.19,1.15-1.55,2.54-3.14,3.96-4.44l.56-.52c1.13-1.04,2.3-2,3.59-2.84.11-.07.23-.16.16-.32-.75-1.54-1.11-3.22-.98-4.93.05-.61.15-1.19.37-1.75.2-.07.39-.02.58,0,2.38.31,5.04.97,7.05,2.32.13.08.29.09.43.04,1.16-.35,2.32-.56,3.53-.67l.68-.06.59-.05c.6-.05,1.2-.04,1.81,0l.8.05c1.34.09,2.97.37,4.22.81.86.31,1.62.75,1.89,1.69l4.67-.52,2-.23c.52-.06,1.01-.09,1.49-.33.21-.11.48-.18.71-.15.56.08,1.06.29,1.48.65.86.75.55,1.79-.06,2.58.46,1.33-.18,3.68-.98,4.67l-.43.54c-.23.29-.61.42-.85.69-.31.34-.45.81-.74,1.18-.41.54-.85,1.03-1.42,1.41-.04.03-.11-.02-.12-.04-.02-.04.03-.1.04-.15l.28-1.89c.02-.17.02-.35-.06-.49-.79.24-1.44.67-2.11,1.14-1.89,1.32-3.22,3.12-3.16,5.53,0,.06,0,.11.03.16.16.24,1.16-.77,1.25-.49.23.69.02,2.18.08,2.19.38.06,1.24-.91,1.5-1.24.06-.07.2-.15.21-.06.12.79-.1,1.47-.39,2.16-.09.27.02.61-.02.89-.1.79-.5,1.44-1.08,1.96-1.77,1.61-4.64.6-6.29-.8-.93.22-2.44,1.16-3.16,1.82ZM45.65,37c-.14.07-.25-.01-.35-.09-1.42-1.17-2.1-2.58-2.79-4.26,1.48-3.3,4.34-6.52,7.65-7.98.1-.04.28-.1.32.03.21.7.18,1.42.1,2.14l-.11.99c.22-.1.33-.28.48-.46.69-.88,1.18-1.9,1.48-2.99.05-.19.08-.31.31-.34.53-.06,1.06.04,1.57.27.3-.64.53-1.27.69-1.95.03-.15-.08-.29-.19-.37l-.96-.74c-.84-.65-.71-.87-1.46-.74l-5.09.86c-1.84.31-3.82.9-5.03,2.35-.33-.09.47-1.41.25-1.5-.26-.14-.55-.14-.83-.2l-2.85-.65c-.05-.01-.1-.06-.11-.09-.02-.03.02-.09.07-.12.61-.26,1.56-.44,2.25-.74l-.31-.77c.19-.02.34.07.5.16.8.46,1.64.86,2.55,1.06.33.07.66-.52.76-.78-.49-.41-1.85-.92-2.43-1.01-1.35-.2-2.06-.31-3.48-.21-2.11.15-4.14.68-6.06,1.54-.25-.16-.42-.35-.62-.52-1.67-1.37-3.47-1.99-5.59-2.25-.13.19-.13.4-.14.62-.08,1.79.86,3.58,2.49,4.53-.17-.62-.35-1.18-.38-1.79-.03-.49-.15-.95-.35-1.4-.04-.09-.05-.18-.04-.28.34.07.62.25.93.39.42.18.74.44,1.08.73.52.45.89.99,1.15,1.63.14.35.42.6.68.86.4.42.93.51,1.54.63-1.79,1.45-2.53,2.17-3.31,4.28-.02.05,0,.24.05.22.98-.33,1.93-.57,2.95-.68.53-.06,1.07-.03,1.61,0,.22.01,2.06.29,2.32.49-.26.2-.48.28-.72.42-1.21.67-2.34,1.51-3.16,2.71,1.78-.32,3.54,0,4.96,1.09-2.27.28-3.94.97-5.25,2.79.05.07.15.07.23.05,1.12-.34,2.26-.48,3.43-.41,1.37.08,2.71.31,3.98.97-.61.37-1.14.7-1.52,1.24.32.02.58-.08.88-.09,1.04-.03,2.04.27,2.95.75.61.32,1.12.7,1.65,1.12.74.59,1.54.97,2.52.82.83-.13,1.54-.77,1.74-1.6-.6.13-1.16.29-1.74.08.6-.78.98-1.59,1.08-2.52,0-.09-.08-.28-.13-.2-.5.73-1.36,1.49-2.13,1.89ZM55.05,25.63c.41-.79.66-1.63.78-2.52.04-.28.1-.54.02-.83-.17.16-.22.34-.29.51-.23.56-.48,1.1-.76,1.63-.08.15-.09.28-.02.43.25.47.03.72.27.78Z"/>
</svg>