<?xml version="1.0" encoding="UTF-8"?>
<svg id="_레이어_1" data-name="레이어_1" xmlns="http://www.w3.org/2000/svg" version="1.1" viewBox="0 0 1200 630">
  <!-- Generator: Adobe Illustrator 30.3.0, SVG Export Plug-In . SVG Version: 2.1.3 Build 182)  -->
  <defs>
    <style>
      .st0 {
        fill: #fff;
      }
    </style>
  </defs>
  <path class="st0" d="M616.4,284.32c-2.83,2.56-5.5,5.02-7.9,7.85-8.86,10.57-14.63,23.07-17.78,36.53-1.44.91-4.17-11.16-4.75-12.55-1.92,2.46-2.83,4.97-4.01,7.53-3.58,7.85-6.19,15.97-7.9,24.4-.05.32-.75,1.07-.91.75-2.94-6.73-5.18-14.9-5.45-22.16l-.21-6.41c-2.99,4.91-5.5,22.59-5.71,27.87l-.27,5.98c-.11,2.14-.16,4.27-.05,6.41,0,1.07.43,2.03.21,3.15-.21,1.17.16,2.3.21,3.42l.21,3.15c.11,1.6.32,3.2.69,4.86-.37.69-1.39-.16-1.82-.53l-3.04-2.72c-2.78-2.46-2.62-2.14-5.29-4.97-5.29-5.55-10.04-11.32-14.26-17.84-9.24-14.31-13.72-26.17-16.23-43.52-2.99,6.78-4.33,15.11-4.86,21.95-.11,1.17,0,2.24-.27,3.47s.48,2.56-.69,3.63c-8.54-13.19-14.85-27.87-15.54-43.41l-.16-3.52c-.11-2.83-.27-5.66,0-8.49l.21-3.15c.27-3.42,1.12-6.57,1.66-9.99.05-.37-.91-.16-1.23,0-4.65,2.62-8.97,5.66-12.76,9.35-.37.37-.69.96-1.44.59,2.72-17.78,10.41-34.34,22.7-47.53.8-.85,1.39-1.55,2.24-2.67-4.06.69-9.51,1.82-13.3,3.58-.37.16-.69,0-.91-.21-.32-.32,0-.64.32-1.01,6.14-8.28,13.56-16.77,21.15-23.71l2.99-2.78c6.03-5.55,12.28-10.68,19.17-15.17.59-.37,1.23-.85.85-1.71-4.01-8.22-5.93-17.19-5.23-26.33.27-3.26.8-6.35,1.98-9.35,1.07-.37,2.08-.11,3.1,0,12.71,1.66,26.91,5.18,37.65,12.39.69.43,1.55.48,2.3.21,6.19-1.87,12.39-2.99,18.85-3.58l3.63-.32,3.15-.27c3.2-.27,6.41-.21,9.67,0l4.27.27c7.16.48,15.86,1.98,22.53,4.33,4.59,1.66,8.65,4.01,10.09,9.02l24.94-2.78,10.68-1.23c2.78-.32,5.39-.48,7.96-1.76,1.12-.59,2.56-.96,3.79-.8,2.99.43,5.66,1.55,7.9,3.47,4.59,4.01,2.94,9.56-.32,13.78,2.46,7.1-.96,19.65-5.23,24.94l-2.3,2.88c-1.23,1.55-3.26,2.24-4.54,3.68-1.66,1.82-2.4,4.33-3.95,6.3-2.19,2.88-4.54,5.5-7.58,7.53-.21.16-.59-.11-.64-.21-.11-.21.16-.53.21-.8l1.5-10.09c.11-.91.11-1.87-.32-2.62-4.22,1.28-7.69,3.58-11.27,6.09-10.09,7.05-17.19,16.66-16.87,29.53,0,.32,0,.59.16.85.85,1.28,6.19-4.11,6.68-2.62,1.23,3.68.11,11.64.43,11.69,2.03.32,6.62-4.86,8.01-6.62.32-.37,1.07-.8,1.12-.32.64,4.22-.53,7.85-2.08,11.53-.48,1.44.11,3.26-.11,4.75-.53,4.22-2.67,7.69-5.77,10.47-9.45,8.6-24.78,3.2-33.59-4.27-4.97,1.17-13.03,6.19-16.87,9.72l.21.11h0ZM650.63,262.64c-.75.37-1.34-.05-1.87-.48-7.58-6.25-11.21-13.78-14.9-22.75,7.9-17.62,23.18-34.82,40.85-42.61.53-.21,1.5-.53,1.71.16,1.12,3.74.96,7.58.53,11.43l-.59,5.29c1.17-.53,1.76-1.5,2.56-2.46,3.68-4.7,6.3-10.15,7.9-15.97.27-1.01.43-1.66,1.66-1.82,2.83-.32,5.66.21,8.38,1.44,1.6-3.42,2.83-6.78,3.68-10.41.16-.8-.43-1.55-1.01-1.98l-5.13-3.95c-4.49-3.47-3.79-4.65-7.8-3.95l-27.18,4.59c-9.83,1.66-20.4,4.81-26.86,12.55-1.76-.48,2.51-7.53,1.34-8.01-1.39-.75-2.94-.75-4.43-1.07l-15.22-3.47c-.27-.05-.53-.32-.59-.48-.11-.16.11-.48.37-.64,3.26-1.39,8.33-2.35,12.02-3.95l-1.66-4.11c1.01-.11,1.82.37,2.67.85,4.27,2.46,8.76,4.59,13.62,5.66,1.76.37,3.52-2.78,4.06-4.17-2.62-2.19-9.88-4.91-12.98-5.39-7.21-1.07-11-1.66-18.58-1.12-11.27.8-22.11,3.63-32.36,8.22-1.34-.85-2.24-1.87-3.31-2.78-8.92-7.32-18.53-10.63-29.85-12.02-.69,1.01-.69,2.14-.75,3.31-.43,9.56,4.59,19.12,13.3,24.19-.91-3.31-1.87-6.3-2.03-9.56-.16-2.62-.8-5.07-1.87-7.48-.21-.48-.27-.96-.21-1.5,1.82.37,3.31,1.34,4.97,2.08,2.24.96,3.95,2.35,5.77,3.9,2.78,2.4,4.75,5.29,6.14,8.7.75,1.87,2.24,3.2,3.63,4.59,2.14,2.24,4.97,2.72,8.22,3.36-9.56,7.74-13.51,11.59-17.68,22.86-.11.27,0,1.28.27,1.17,5.23-1.76,10.31-3.04,15.75-3.63,2.83-.32,5.71-.16,8.6,0,1.17.05,11,1.55,12.39,2.62-1.39,1.07-2.56,1.5-3.84,2.24-6.46,3.58-12.5,8.06-16.87,14.47,9.51-1.71,18.9,0,26.49,5.82-12.12,1.5-21.04,5.18-28.04,14.9.27.37.8.37,1.23.27,5.98-1.82,12.07-2.56,18.32-2.19,7.32.43,14.47,1.66,21.25,5.18-3.26,1.98-6.09,3.74-8.12,6.62,1.71.11,3.1-.43,4.7-.48,5.55-.16,10.89,1.44,15.75,4.01,3.26,1.71,5.98,3.74,8.81,5.98,3.95,3.15,8.22,5.18,13.46,4.38,4.43-.69,8.22-4.11,9.29-8.54-3.2.69-6.19,1.55-9.29.43,3.2-4.17,5.23-8.49,5.77-13.46,0-.48-.43-1.5-.69-1.07-2.67,3.9-7.26,7.96-11.37,10.09l-.37.11v.03ZM700.82,201.92c2.19-4.22,3.52-8.7,4.17-13.46.21-1.5.53-2.88.11-4.43-.91.85-1.17,1.82-1.55,2.72-1.23,2.99-2.56,5.87-4.06,8.7-.43.8-.48,1.5-.11,2.3,1.34,2.51.16,3.84,1.44,4.17Z"/>
  <g>
    <path class="st0" d="M275.71,390.24h13.89v28.37h-13.89v-28.37ZM310.45,389.37c2.28,0,4.48.24,6.6.72s4.02,1.3,5.7,2.46c1.68,1.16,3.02,2.74,4.02,4.75s1.51,4.54,1.51,7.58v13.72h-13.89v-11.98c0-2.9-.75-4.95-2.26-6.17s-4.23-1.82-8.16-1.82c-2.08,0-4.1.23-6.05.69-1.95.46-3.7,1.01-5.24,1.65-1.54.64-2.76,1.26-3.65,1.88l-.12-2.2c.15-.69.68-1.67,1.59-2.92s2.23-2.52,3.97-3.79c1.74-1.27,3.93-2.35,6.57-3.24,2.64-.89,5.78-1.33,9.41-1.33h0Z"/>
    <path class="st0" d="M348.77,375.36v8.68h-14.71v-8.68h14.71ZM334.47,390.24h13.89v28.37h-13.89v-28.37Z"/>
    <path class="st0" d="M377.95,414.62c-5.48,0-10-.45-13.55-1.36-3.55-.91-6.18-2.28-7.87-4.11-1.7-1.83-2.55-4.14-2.55-6.92,0-2.58.83-4.83,2.49-6.74s4.26-3.41,7.79-4.49,8.1-1.62,13.69-1.62h28.95v7.29c-2.51.12-5.05,0-7.61-.38-2.57-.37-4.93-.86-7.09-1.48l-.64-.87c1.74.54,3.39,1.24,4.95,2.08,1.56.85,2.83,1.87,3.79,3.07.96,1.2,1.45,2.62,1.45,4.28,0,2.39-.82,4.43-2.46,6.11-1.64,1.68-4.21,2.95-7.7,3.82-3.49.87-8.04,1.3-13.63,1.3v.02ZM390.28,431.06v-1.56c0-1.16-.51-1.84-1.53-2.05s-2.63-.32-4.83-.32h-16.15c-2.74,0-4.95-.19-6.63-.58-1.68-.39-2.95-.91-3.82-1.56-.87-.66-1.45-1.38-1.74-2.17-.29-.79-.43-1.57-.43-2.34,0-1.66.62-2.96,1.85-3.91s3.13-1.61,5.67-2c2.55-.38,5.79-.58,9.73-.58l5.56.64c-3.24,0-5.5.16-6.77.49s-1.91.97-1.91,1.94c0,.54.25.94.75,1.19s1.18.38,2.03.38h17.08c3.82,0,6.83.28,9.03.84s3.75,1.5,4.66,2.84c.91,1.33,1.36,3.16,1.36,5.47v3.3h-13.89l-.02-.02ZM377.95,407.03c2.55,0,4.6-.2,6.17-.61,1.56-.41,2.69-.96,3.39-1.65.69-.7,1.04-1.47,1.04-2.32,0-.96-.35-1.79-1.04-2.49-.69-.69-1.81-1.23-3.36-1.62-1.54-.38-3.61-.58-6.19-.58s-4.61.19-6.19.58c-1.58.39-2.74.93-3.47,1.62s-1.1,1.53-1.1,2.49c0,.85.36,1.62,1.07,2.32.71.69,1.86,1.24,3.44,1.65,1.58.41,3.67.61,6.25.61h-.01Z"/>
    <path class="st0" d="M411.24,418.61v-39.95h13.89v39.95h-13.89ZM449.91,418.61v-10.54c0-1.74-.35-3.2-1.04-4.4-.69-1.2-1.92-2.09-3.68-2.69-1.76-.6-4.24-.9-7.44-.9-1.81,0-3.58.16-5.3.49s-3.26.72-4.63,1.19c-1.37.46-2.46.93-3.27,1.39l-.12-2.78c.15-.58.69-1.46,1.59-2.63.91-1.18,2.23-2.41,3.97-3.71s3.93-2.39,6.57-3.3c2.64-.91,5.78-1.36,9.41-1.36,2.28,0,4.48.21,6.6.64,2.12.43,4.02,1.13,5.7,2.11,1.68.98,3.02,2.31,4.02,3.97s1.51,3.73,1.51,6.19v16.33h-13.89Z"/>
    <path class="st0" d="M467.57,390.24h34.04v8.68h-34.04v-8.68ZM477.64,381.56h13.89v37.05h-13.89v-37.05Z"/>
    <path class="st0" d="M558.29,406.28c0,2.78-.87,5.15-2.6,7.12-1.74,1.97-4.48,3.47-8.22,4.52-3.74,1.04-8.61,1.56-14.59,1.56s-11.07-.48-15.25-1.45c-4.19-.96-7.37-2.55-9.55-4.75s-3.27-5.13-3.27-8.8,1.09-6.61,3.27-8.83,5.36-3.82,9.55-4.81c4.19-.98,9.27-1.48,15.25-1.48s10.83.52,14.53,1.56,6.43,2.55,8.16,4.52c1.74,1.97,2.62,4.32,2.66,7.06h-12.74c-.62-1.51-2.01-2.67-4.17-3.5s-4.98-1.25-8.45-1.25c-2.82,0-5.27.2-7.35.61s-3.7,1.09-4.83,2.05c-1.14.97-1.71,2.32-1.71,4.05s.56,3.03,1.68,4,2.72,1.64,4.81,2.03,4.55.58,7.41.58c3.47,0,6.3-.41,8.48-1.24s3.58-2.02,4.2-3.56h12.74,0Z"/>
    <path class="st0" d="M583.94,419.42c-4.17,0-7.87-.59-11.12-1.77s-5.8-2.88-7.67-5.12-2.81-4.94-2.81-8.11.94-6.1,2.81-8.34,4.43-3.92,7.67-5.04,6.95-1.68,11.12-1.68c4.63,0,8.64.63,12.01,1.88,3.38,1.25,5.98,3.01,7.81,5.27,1.83,2.26,2.75,4.89,2.75,7.9,0,2.24-.52,4.28-1.56,6.11s-2.55,3.42-4.52,4.75c-1.97,1.33-4.34,2.36-7.12,3.07-2.78.71-5.91,1.07-9.38,1.07h.01ZM589.15,410.62c2.93,0,5.62-.18,8.08-.55,2.45-.37,4.42-.99,5.9-1.88,1.49-.89,2.23-2.14,2.23-3.76s-.74-2.93-2.23-3.82-3.45-1.5-5.9-1.85-5.14-.52-8.08-.52c-3.94,0-6.99.51-9.15,1.53-2.16,1.02-3.24,2.58-3.24,4.66,0,1.35.48,2.49,1.45,3.42.96.93,2.37,1.62,4.23,2.08s4.09.69,6.72.69h0ZM605.36,390.24h13.89v28.37h-13.08c-.27-1.77-.47-3.49-.61-5.15s-.2-3.61-.2-5.85v-17.37Z"/>
    <path class="st0" d="M625.33,378.66h13.89v39.95h-13.89v-39.95Z"/>
    <path class="st0" d="M646.17,378.66h13.89v39.95h-13.89v-39.95Z"/>
    <path class="st0" d="M687.16,419.42c-4.17,0-7.87-.59-11.12-1.77s-5.8-2.88-7.67-5.12-2.81-4.94-2.81-8.11.94-6.1,2.81-8.34,4.43-3.92,7.67-5.04,6.95-1.68,11.12-1.68c4.63,0,8.64.63,12.01,1.88,3.38,1.25,5.98,3.01,7.82,5.27,1.83,2.26,2.75,4.89,2.75,7.9,0,2.24-.52,4.28-1.56,6.11s-2.55,3.42-4.52,4.75c-1.97,1.33-4.34,2.36-7.12,3.07-2.78.71-5.91,1.07-9.38,1.07h0ZM692.37,410.62c2.93,0,5.62-.18,8.08-.55,2.45-.37,4.42-.99,5.91-1.88s2.23-2.14,2.23-3.76-.74-2.93-2.23-3.82-3.46-1.5-5.91-1.85c-2.45-.35-5.14-.52-8.08-.52-3.94,0-6.99.51-9.15,1.53-2.16,1.02-3.24,2.58-3.24,4.66,0,1.35.48,2.49,1.45,3.42.96.93,2.37,1.62,4.23,2.08s4.09.69,6.72.69h0ZM708.58,390.24h13.89v28.37h-13.08c-.27-1.77-.47-3.49-.61-5.15s-.2-3.61-.2-5.85v-17.37Z"/>
    <path class="st0" d="M766.93,403.96l.12,2.78c-.12.81-.49,1.76-1.13,2.84s-1.51,2.2-2.63,3.36c-1.12,1.16-2.49,2.23-4.11,3.21s-3.47,1.79-5.56,2.4c-2.08.62-4.4.93-6.95.93s-4.96-.26-7.24-.78c-2.28-.52-4.3-1.38-6.08-2.58-1.78-1.2-3.17-2.81-4.17-4.83-1-2.03-1.5-4.56-1.5-7.61v-13.43h13.89v11.98c0,2.12.36,3.76,1.07,4.92s1.84,1.96,3.39,2.4c1.54.44,3.53.67,5.96.67,2.28,0,4.39-.34,6.34-1.01s3.67-1.5,5.15-2.46c1.49-.96,2.63-1.89,3.45-2.78h0ZM780.25,418.61h-13.89v-28.37h13.89v28.37Z"/>
    <path class="st0" d="M806.47,419.42c-4.17,0-7.87-.59-11.12-1.77s-5.8-2.88-7.67-5.12-2.81-4.94-2.81-8.11.94-6.1,2.81-8.34,4.43-3.92,7.67-5.04,6.95-1.68,11.12-1.68c3.47,0,6.6.36,9.38,1.07,2.78.71,5.15,1.74,7.12,3.07,1.97,1.33,3.47,2.92,4.52,4.78s1.56,3.9,1.56,6.14-.52,4.28-1.56,6.11-2.55,3.42-4.52,4.75c-1.97,1.33-4.34,2.36-7.12,3.07-2.78.71-5.91,1.07-9.38,1.07h0ZM811.68,410.62c2.93,0,5.62-.18,8.08-.55,2.45-.37,4.42-.99,5.91-1.88s2.23-2.14,2.23-3.76-.74-2.93-2.23-3.82-3.46-1.5-5.91-1.85c-2.45-.35-5.14-.52-8.08-.52-3.94,0-6.99.51-9.15,1.53-2.16,1.02-3.24,2.58-3.24,4.66,0,1.35.48,2.49,1.45,3.42.96.93,2.37,1.62,4.23,2.08s4.09.69,6.72.69h0ZM827.89,378.66h13.89v39.95h-13.08c-.15-.89-.33-2.32-.52-4.31s-.29-4.22-.29-6.69v-28.95Z"/>
    <path class="st0" d="M864.31,375.36v8.68h-14.7v-8.68h14.7ZM850.01,390.24h13.89v28.37h-13.89v-28.37Z"/>
    <path class="st0" d="M897.02,419.48c-6.14,0-11.24-.5-15.31-1.5s-7.12-2.61-9.15-4.8c-2.03-2.2-3.04-5.09-3.04-8.68s1.01-6.49,3.04-8.71c2.03-2.22,5.08-3.84,9.15-4.86s9.18-1.53,15.31-1.53,11.16.51,15.2,1.53c4.03,1.02,7.05,2.64,9.06,4.86,2.01,2.22,3.01,5.12,3.01,8.71s-1,6.48-3.01,8.68c-2.01,2.2-5.03,3.8-9.06,4.8s-9.1,1.5-15.2,1.5ZM897.02,411.08c2.86,0,5.25-.24,7.18-.72s3.4-1.22,4.4-2.2,1.5-2.21,1.5-3.68-.49-2.7-1.48-3.71c-.98-1-2.44-1.76-4.37-2.26s-4.34-.75-7.24-.75-5.28.25-7.27.75-3.49,1.25-4.52,2.23c-1.02.98-1.53,2.23-1.53,3.73s.5,2.69,1.51,3.68c1,.98,2.5,1.72,4.49,2.2s4.43.72,7.32.72h.01Z"/>
  </g>
</svg>